<?xml version="1.0" standalone="no"?>
<!DOCTYPE svg PUBLIC "-//W3C//DTD SVG 20010904//EN"
 "http://www.w3.org/TR/2001/REC-SVG-20010904/DTD/svg10.dtd">
<svg version="1.0" xmlns="http://www.w3.org/2000/svg"
 width="512.000000pt" height="512.000000pt" viewBox="0 0 512.000000 512.000000"
 preserveAspectRatio="xMidYMid meet">
<metadata>
Created by potrace 1.11, written by Peter Selinger 2001-2013
</metadata>
<g transform="translate(0.000000,512.000000) scale(0.100000,-0.100000)"
fill="#000000" stroke="none">
<path d="M968 4894 c-255 -59 -482 -347 -622 -792 -34 -109 -79 -296 -90 -377
-3 -22 -9 -57 -12 -78 -19 -120 -28 -270 -28 -447 0 -144 10 -342 19 -391 2
-11 9 -53 14 -92 6 -40 13 -81 15 -92 2 -11 11 -54 20 -95 26 -126 91 -335
134 -430 50 -113 57 -127 100 -200 140 -241 322 -385 507 -403 l40 -4 1 -599
c0 -410 4 -605 11 -619 21 -39 53 -59 94 -59 32 0 55 11 117 54 42 30 102 72
134 93 l56 39 123 -87 c67 -48 132 -91 145 -95 41 -16 77 0 207 91 l129 91 72
-49 c39 -28 99 -69 132 -93 35 -24 76 -43 94 -45 32 -3 56 11 247 144 l62 43
122 -87 c67 -48 132 -91 145 -95 41 -16 77 0 206 91 80 56 133 87 140 83 7 -5
66 -46 131 -92 65 -46 130 -85 145 -86 41 -5 63 7 194 100 l121 86 61 -43
c213 -148 218 -151 250 -145 29 6 85 41 233 145 l61 44 129 -91 c70 -50 140
-93 155 -97 35 -9 91 18 109 52 12 22 14 267 14 1557 0 842 -4 1576 -8 1631
-9 106 -11 123 -22 195 -3 25 -9 61 -11 80 -9 57 -52 248 -75 324 -129 441
-343 738 -598 830 -55 20 -73 21 -1611 22 -1250 1 -1566 -2 -1612 -12z m2659
-215 c-87 -117 -129 -185 -182 -294 -120 -248 -204 -567 -233 -888 -14 -160
-5 -678 13 -707 2 -3 6 -27 9 -55 3 -27 8 -61 11 -75 3 -14 8 -41 11 -60 3
-19 7 -43 10 -52 3 -9 7 -26 9 -39 52 -270 214 -633 343 -771 l26 -28 -35 -1
c-19 0 -608 -1 -1310 -1 -1014 0 -1284 2 -1315 12 -199 66 -371 330 -469 719
-27 108 -61 302 -70 401 -3 36 -8 88 -11 115 -5 56 -5 423 1 500 29 389 127
748 263 964 99 158 202 245 314 266 38 6 491 10 1342 10 1182 0 1284 -1 1273
-16z m533 -8 c89 -34 161 -101 247 -229 133 -201 235 -539 270 -897 17 -169 8
-683 -13 -789 -2 -12 -7 -46 -10 -76 -3 -30 -7 -57 -9 -60 -2 -3 -6 -25 -10
-48 -11 -77 -75 -293 -117 -400 -81 -204 -212 -374 -332 -432 -54 -26 -70 -29
-141 -27 -67 2 -89 7 -135 32 -124 68 -246 232 -330 445 -57 145 -120 399
-136 551 -3 35 -8 66 -9 69 -17 29 -24 461 -11 645 9 141 10 146 42 345 40
250 161 559 279 708 57 72 73 87 134 128 87 57 190 70 281 35z m532 -3343 c0
-403 -1 -748 -1 -765 l-1 -33 -82 56 c-110 74 -118 73 -283 -44 l-128 -91 -74
52 c-226 160 -227 161 -307 105 -26 -18 -86 -61 -135 -95 l-88 -62 -128 91
c-177 125 -168 125 -340 5 l-136 -96 -121 85 c-125 89 -154 104 -192 104 -13
0 -83 -42 -157 -94 l-134 -94 -102 72 c-56 39 -116 81 -134 94 -64 44 -78 39
-313 -126 l-58 -41 -62 44 c-234 170 -237 170 -351 91 l-80 -56 -3 476 c-1
263 0 479 3 482 3 3 645 6 1428 7 1586 1 1459 -4 1584 72 76 47 144 109 210
194 59 74 130 192 158 261 11 26 21 45 24 43 2 -2 3 -334 3 -737z"/>
<path d="M3993 3820 c-73 -44 -119 -163 -141 -360 -9 -85 -9 -425 0 -515 26
-250 98 -385 203 -385 80 0 158 113 181 260 3 19 7 42 9 50 24 89 24 537 1
650 -1 8 -6 38 -11 65 -24 148 -102 255 -187 255 -12 0 -37 -9 -55 -20z"/>
</g>
</svg>
